<?xml version="1.0" standalone="no"?>
<!DOCTYPE svg PUBLIC "-//W3C//DTD SVG 20010904//EN"
 "http://www.w3.org/TR/2001/REC-SVG-20010904/DTD/svg10.dtd">
<svg version="1.0" xmlns="http://www.w3.org/2000/svg"
 width="3000.000000pt" height="3000.000000pt" viewBox="0 0 3000.000000 3000.000000"
 preserveAspectRatio="xMidYMid meet">

<g transform="translate(0.000000,3000.000000) scale(0.100000,-0.100000)"
fill="#000000" stroke="none">
<path d="M1062 15053 l3 -13848 13898 -3 13897 -2 0 13850 0 13850 -13900 0
-13900 0 2 -13847z m19773 5976 c5 -5 35 -9 67 -9 32 0 58 -4 58 -9 0 -5 48
-12 108 -15 59 -4 115 -11 124 -16 10 -6 27 -10 37 -10 11 0 23 -4 26 -10 3
-5 21 -10 40 -10 19 0 36 -4 40 -9 3 -5 30 -13 60 -16 31 -4 58 -11 61 -16 3
-5 18 -9 34 -9 16 0 31 -4 34 -9 3 -4 29 -11 57 -15 49 -7 59 -10 106 -34 13
-7 31 -12 40 -12 10 0 27 -7 37 -15 11 -8 28 -15 38 -15 10 0 26 -4 36 -9 31
-17 90 -41 99 -41 8 0 328 -159 368 -183 11 -7 34 -22 52 -34 17 -13 36 -23
41 -23 5 0 16 -7 23 -16 7 -9 22 -20 34 -25 30 -13 58 -32 76 -51 9 -10 21
-18 26 -18 6 0 18 -10 29 -21 10 -12 28 -25 39 -30 38 -17 79 -47 151 -111 22
-21 45 -38 50 -38 5 0 36 -27 69 -60 33 -33 64 -60 70 -60 12 0 151 -139 156
-157 2 -7 50 -59 107 -116 56 -57 102 -108 102 -112 0 -9 100 -128 112 -133 5
-2 8 -9 8 -16 0 -7 9 -21 20 -31 11 -10 20 -22 20 -28 0 -5 14 -26 30 -46 17
-20 34 -41 38 -47 20 -30 34 -53 52 -91 11 -23 25 -45 31 -48 5 -4 21 -31 35
-60 13 -30 29 -57 34 -60 6 -4 26 -39 45 -78 36 -73 55 -108 66 -117 8 -7 39
-77 39 -87 0 -5 11 -32 25 -59 14 -27 25 -55 25 -61 0 -7 5 -13 10 -13 6 0 10
-9 10 -20 0 -11 9 -35 20 -55 11 -20 20 -40 20 -46 0 -6 7 -27 16 -47 30 -68
33 -77 40 -112 6 -32 10 -41 34 -90 6 -11 10 -29 10 -39 0 -11 4 -22 9 -26 6
-3 13 -26 17 -50 3 -25 10 -48 15 -51 5 -3 9 -18 9 -34 0 -16 4 -31 9 -34 5
-3 12 -33 16 -66 4 -33 11 -63 16 -66 5 -3 9 -23 9 -44 0 -21 5 -42 10 -45 6
-3 10 -24 10 -45 0 -21 4 -41 9 -45 5 -3 13 -46 17 -95 3 -50 10 -90 15 -90 5
0 9 -25 9 -55 0 -30 4 -63 10 -73 16 -30 35 -406 35 -722 0 -297 -17 -594 -36
-614 -5 -6 -9 -34 -9 -62 0 -29 -4 -55 -9 -58 -4 -3 -11 -40 -15 -83 -3 -42
-11 -82 -16 -87 -6 -6 -10 -32 -10 -58 0 -26 -4 -48 -10 -48 -5 0 -10 -11 -10
-23 0 -13 -3 -27 -7 -31 -4 -3 -8 -14 -9 -24 -12 -82 -16 -102 -25 -107 -5 -4
-9 -19 -9 -35 0 -16 -4 -31 -9 -34 -5 -3 -12 -26 -15 -51 -4 -24 -11 -47 -17
-50 -5 -4 -9 -15 -9 -26 0 -10 -4 -28 -10 -39 -5 -11 -14 -28 -19 -38 -5 -10
-12 -37 -16 -60 -4 -23 -11 -44 -16 -48 -5 -3 -9 -16 -9 -30 0 -13 -4 -24 -10
-24 -5 0 -10 -5 -10 -11 0 -11 -13 -43 -56 -135 -13 -28 -24 -55 -24 -60 0
-13 -186 -380 -200 -394 -8 -8 -28 -42 -47 -80 -9 -19 -21 -39 -25 -45 -4 -5
-18 -23 -31 -40 -13 -16 -27 -37 -30 -45 -13 -28 -97 -146 -139 -196 -16 -17
-28 -36 -28 -41 0 -5 -16 -24 -35 -43 -19 -19 -35 -38 -35 -42 0 -15 -68 -87
-277 -295 -112 -112 -209 -203 -216 -203 -7 0 -33 -20 -57 -45 -24 -25 -48
-45 -53 -45 -6 0 -29 -17 -52 -37 -58 -53 -137 -108 -185 -130 -8 -3 -29 -17
-46 -30 -17 -13 -35 -23 -41 -23 -5 0 -18 -9 -27 -19 -10 -11 -31 -23 -47 -26
-16 -4 -29 -10 -29 -15 0 -4 -30 -23 -67 -42 -38 -19 -77 -39 -88 -46 -11 -6
-56 -27 -100 -47 -44 -20 -102 -47 -130 -61 -27 -13 -57 -24 -66 -24 -8 0 -24
-7 -35 -15 -10 -8 -29 -15 -41 -15 -12 0 -24 -4 -27 -9 -4 -5 -25 -12 -48 -16
-42 -7 -52 -11 -95 -33 -13 -7 -32 -12 -42 -12 -11 0 -23 -4 -26 -10 -3 -5
-19 -10 -34 -10 -15 0 -36 -7 -47 -15 -10 -8 -35 -15 -55 -15 -20 0 -39 -3
-43 -7 -10 -10 -163 -42 -203 -43 -17 0 -35 -4 -38 -10 -3 -5 -24 -10 -45 -10
-21 0 -41 -4 -44 -8 -3 -5 -67 -12 -143 -16 -76 -4 -142 -11 -147 -16 -13 -13
-609 -13 -621 -1 -6 5 -77 13 -158 17 -81 4 -150 11 -153 15 -3 5 -21 9 -40 9
-19 0 -42 4 -52 9 -16 8 -110 27 -195 38 -20 3 -40 9 -43 14 -3 5 -23 9 -45 9
-21 0 -39 4 -39 9 0 5 -20 12 -45 15 -24 4 -47 11 -50 17 -4 5 -15 9 -26 9
-10 0 -27 4 -37 9 -9 6 -44 18 -77 27 -33 9 -64 21 -70 26 -5 4 -19 8 -31 8
-13 0 -26 4 -29 10 -3 6 -13 10 -22 10 -15 0 -59 18 -126 51 -22 10 -45 19
-52 19 -7 0 -18 7 -25 15 -7 8 -20 15 -29 15 -18 0 -122 50 -147 71 -9 7 -23
14 -31 15 -8 2 -22 9 -31 17 -10 7 -33 21 -52 31 -44 21 -70 37 -89 55 -8 8
-30 20 -47 27 -18 8 -36 19 -39 24 -4 6 -17 15 -28 21 -35 15 -72 40 -132 92
-18 15 -37 27 -42 27 -5 0 -24 16 -43 35 -19 19 -37 35 -41 35 -10 0 -78 59
-180 158 -47 45 -91 82 -97 82 -7 0 -12 7 -12 15 0 8 -5 15 -12 15 -14 0 -108
90 -108 103 0 5 -25 35 -56 67 -31 32 -63 69 -72 82 -9 13 -22 27 -29 31 -7 4
-13 14 -13 21 0 6 -16 27 -35 46 -19 19 -35 39 -35 45 0 6 -11 22 -25 35 -14
13 -25 28 -25 33 0 5 -16 28 -35 51 -19 24 -35 47 -35 53 0 5 -11 20 -25 33
-14 13 -25 29 -25 36 0 6 -7 17 -15 24 -9 7 -27 37 -41 66 -14 30 -30 56 -35
60 -6 3 -14 16 -20 27 -10 24 -31 59 -40 67 -3 3 -15 25 -27 50 -12 25 -29 59
-38 75 -29 51 -33 59 -49 93 -30 64 -45 100 -45 109 0 5 -12 32 -26 61 -14 29
-27 58 -28 64 -1 7 -10 30 -19 51 -41 89 -47 106 -47 126 0 11 -9 36 -20 56
-11 20 -20 46 -20 60 0 13 -4 27 -10 30 -5 3 -10 14 -10 23 0 9 -7 30 -15 46
-8 15 -15 39 -15 52 0 12 -4 25 -9 29 -5 3 -12 31 -16 63 -6 53 -14 81 -36
124 -5 10 -9 38 -9 62 0 25 -4 47 -9 50 -5 4 -8 17 -6 31 1 14 -2 28 -6 31 -5
3 -9 23 -9 44 0 21 -4 42 -10 45 -5 3 -10 34 -10 69 0 34 -5 67 -11 73 -6 6
-13 71 -16 147 -3 75 -10 139 -15 142 -4 3 -8 45 -8 94 0 49 -4 92 -10 95 -6
4 -10 120 -10 315 0 195 4 311 10 315 6 3 10 37 10 75 0 38 4 71 9 74 4 3 11
60 14 127 3 67 10 126 16 132 6 6 11 37 11 68 0 32 5 61 10 64 6 3 10 19 10
35 0 16 4 31 9 34 4 3 7 17 6 31 -2 14 1 27 6 31 5 3 9 23 9 44 0 21 5 42 10
45 6 3 10 19 10 35 0 16 5 32 10 35 6 3 10 23 10 43 0 20 7 50 15 66 8 15 15
38 15 50 0 12 4 26 8 32 5 5 17 36 26 69 10 33 26 77 37 98 10 22 19 48 19 59
0 19 7 37 46 123 10 22 19 42 19 45 4 15 19 49 36 83 10 22 19 44 19 49 0 14
52 121 61 128 4 3 10 17 14 32 4 15 13 32 20 38 8 6 30 44 50 83 37 75 56 108
66 117 3 3 13 21 22 40 23 46 37 69 65 103 12 16 22 34 22 41 0 7 9 21 20 31
11 10 20 23 20 30 0 6 11 22 25 35 14 13 25 29 25 36 0 7 3 14 8 16 12 5 112
125 112 135 0 4 34 42 75 83 41 41 75 79 75 85 0 13 332 345 345 345 6 0 26
16 45 35 19 19 38 35 43 35 5 0 24 12 42 28 60 51 75 62 84 62 4 0 16 10 27
21 10 12 28 25 39 30 21 10 57 31 65 39 23 23 102 79 130 93 37 19 72 39 80
47 23 23 381 199 420 206 19 4 37 10 40 13 11 13 51 31 68 31 10 0 27 7 38 15
10 8 34 15 52 15 17 0 32 3 32 8 0 13 53 31 113 38 31 4 57 11 57 15 0 5 11 9
24 9 14 0 27 4 30 9 3 5 30 12 61 16 30 3 57 11 60 16 4 5 24 9 46 9 21 0 39
5 39 10 0 6 15 10 34 10 19 0 37 4 40 9 3 5 55 12 116 16 61 4 113 11 116 16
3 5 31 9 63 9 31 0 61 4 67 10 19 19 798 18 819 -1z m-11160 -174 c50 -3 94
-11 100 -16 5 -5 42 -9 81 -9 40 0 75 -4 78 -9 3 -5 33 -12 66 -16 33 -4 63
-11 66 -16 3 -5 18 -9 34 -9 16 0 31 -4 34 -9 3 -4 29 -11 57 -15 49 -7 59
-10 106 -34 13 -7 31 -12 42 -12 10 0 32 -7 47 -15 16 -8 39 -15 52 -15 12 0
22 -3 22 -8 0 -4 12 -12 28 -19 15 -6 46 -20 70 -30 23 -10 42 -21 42 -25 0
-5 11 -8 24 -8 13 0 29 -7 36 -15 7 -8 19 -15 26 -15 8 0 14 -3 14 -8 0 -6 74
-44 90 -46 3 -1 24 -16 47 -33 22 -18 45 -33 50 -33 6 0 18 -9 28 -20 10 -11
23 -20 30 -20 6 0 22 -11 35 -25 13 -14 27 -25 32 -25 22 0 328 -306 328 -327
0 -5 16 -24 35 -43 19 -19 35 -39 35 -45 0 -6 11 -22 25 -35 14 -13 25 -29 25
-36 0 -6 6 -17 14 -23 8 -7 26 -35 40 -64 29 -57 48 -89 57 -97 5 -5 22 -41
50 -107 8 -18 17 -33 21 -33 5 0 8 -8 8 -19 0 -10 11 -39 25 -65 14 -26 25
-55 25 -65 0 -10 7 -32 15 -47 8 -16 15 -39 15 -51 0 -13 5 -23 10 -23 6 0 10
-10 10 -23 0 -13 4 -27 8 -33 5 -5 17 -53 27 -106 11 -54 23 -98 27 -98 4 0 8
-27 8 -59 0 -33 4 -62 9 -65 8 -5 13 -53 25 -249 2 -26 6 -50 10 -54 9 -9 7
-381 -2 -387 -5 -3 -9 -31 -10 -63 -3 -105 -14 -203 -23 -209 -5 -3 -9 -24 -9
-48 0 -23 -4 -46 -8 -52 -5 -5 -17 -48 -27 -97 -10 -48 -22 -90 -26 -93 -5 -3
-9 -18 -9 -34 0 -16 -4 -32 -10 -35 -5 -3 -10 -16 -10 -29 0 -12 -7 -31 -15
-42 -8 -10 -15 -29 -15 -41 0 -12 -4 -24 -9 -28 -5 -3 -12 -18 -16 -35 -7 -30
-106 -232 -126 -257 -6 -7 -8 -13 -3 -13 4 0 -1 -10 -12 -22 -11 -13 -26 -36
-34 -53 -8 -16 -29 -49 -47 -71 -18 -23 -30 -43 -28 -46 3 -2 -9 -17 -25 -33
-17 -16 -30 -33 -30 -39 0 -15 -332 -346 -347 -346 -7 0 -13 -6 -13 -14 0 -7
-8 -16 -17 -20 -25 -8 -84 -44 -108 -65 -11 -10 -27 -21 -35 -25 -8 -3 -28
-15 -45 -26 -16 -11 -37 -23 -45 -26 -8 -4 -28 -17 -45 -28 -16 -12 -41 -27
-55 -33 -14 -6 -55 -25 -92 -42 -37 -17 -70 -31 -75 -31 -4 0 -29 -11 -56 -24
-26 -14 -62 -27 -80 -31 -30 -6 -61 -17 -97 -35 -9 -4 -39 -11 -68 -15 l-52
-7 0 -43 c0 -30 7 -52 23 -72 27 -34 44 -61 56 -88 5 -12 16 -27 25 -34 9 -7
16 -18 16 -24 0 -5 15 -28 34 -51 18 -23 37 -52 41 -66 4 -14 23 -43 41 -66
19 -23 34 -46 34 -51 0 -6 7 -17 16 -24 9 -7 20 -22 25 -34 9 -21 31 -57 39
-65 8 -8 30 -44 39 -65 5 -12 16 -27 25 -34 9 -7 16 -18 16 -23 0 -6 14 -27
30 -48 17 -21 30 -42 30 -48 0 -5 7 -16 16 -23 9 -7 20 -22 25 -34 16 -34 33
-59 67 -102 17 -22 32 -45 32 -51 0 -5 7 -15 16 -22 8 -8 21 -27 28 -45 7 -17
19 -38 27 -46 18 -19 36 -48 48 -74 5 -12 16 -27 25 -34 9 -7 16 -19 16 -26 0
-7 6 -18 14 -24 8 -7 22 -26 31 -44 9 -18 24 -43 33 -57 9 -14 26 -40 37 -58
11 -17 23 -32 28 -32 4 0 7 -6 7 -14 0 -7 7 -20 16 -27 9 -7 20 -22 25 -34 14
-31 52 -91 74 -118 25 -30 40 -53 62 -97 9 -19 20 -37 23 -40 5 -5 23 -30 62
-89 10 -14 21 -33 25 -41 3 -8 17 -28 30 -45 13 -16 27 -34 31 -40 4 -5 16
-26 25 -45 19 -38 39 -72 47 -80 15 -14 60 -80 60 -86 0 -4 10 -18 22 -31 l21
-23 362 0 c199 0 365 -3 369 -7 3 -4 16 -8 28 -10 12 -2 30 -12 40 -23 17 -18
18 -48 18 -430 0 -230 -4 -410 -9 -410 -5 0 -11 -9 -14 -20 -3 -11 -13 -23
-24 -26 -10 -3 -26 -10 -35 -15 -25 -13 -735 -12 -743 1 -3 6 -19 10 -35 10
-16 0 -32 -4 -35 -10 -4 -6 -98 -10 -250 -10 -152 0 -246 4 -250 10 -3 6 -14
10 -23 10 -28 1 -88 63 -111 117 -6 11 -14 24 -19 27 -6 3 -20 25 -32 48 -12
24 -25 45 -29 48 -8 7 -29 40 -40 65 -5 12 -16 27 -25 34 -9 7 -16 18 -16 23
0 5 -11 24 -25 42 -14 18 -25 37 -25 43 0 5 -11 20 -25 33 -14 13 -25 28 -25
33 0 5 -11 22 -25 39 -14 16 -25 35 -25 43 0 7 -7 19 -16 26 -9 7 -20 22 -25
34 -16 33 -32 59 -65 100 -17 22 -38 56 -47 75 -24 48 -39 72 -58 90 -8 8 -19
22 -22 30 -4 8 -16 29 -27 45 -11 17 -28 47 -40 67 -11 20 -25 40 -30 43 -6 4
-16 17 -21 28 -5 12 -17 34 -27 48 -38 58 -57 84 -62 89 -3 3 -14 21 -24 40
-27 54 -39 73 -71 116 -36 47 -52 72 -64 99 -5 12 -16 27 -25 34 -9 7 -16 18
-16 23 0 6 -15 29 -32 51 -34 42 -44 59 -73 114 -9 18 -23 37 -31 44 -8 6 -14
17 -14 24 0 7 -7 19 -16 26 -9 7 -20 22 -25 34 -12 27 -29 54 -56 88 -13 16
-23 34 -23 41 0 7 -9 21 -20 31 -11 10 -20 22 -20 27 0 4 -22 39 -50 78 -27
39 -50 73 -50 76 0 4 -32 54 -92 143 -10 14 -21 33 -25 41 -3 8 -17 28 -30 43
-13 16 -23 34 -23 41 0 7 -11 23 -25 36 -14 13 -25 29 -25 35 0 7 -9 20 -20
30 -11 10 -20 22 -20 28 0 5 -10 23 -22 40 -27 38 -44 65 -57 92 -5 12 -16 27
-25 34 -9 7 -16 18 -16 23 0 5 -11 24 -25 42 -14 18 -25 37 -25 43 0 5 -9 18
-20 28 -11 10 -20 22 -20 28 0 5 -13 26 -30 47 -16 21 -30 42 -30 47 0 6 -9
18 -20 28 -11 10 -20 23 -20 30 0 7 -8 19 -18 28 -17 16 -97 17 -998 15 l-979
-3 -3 -1554 c-1 -1128 -5 -1558 -13 -1568 -6 -7 -22 -13 -35 -13 -12 0 -26 -4
-29 -10 -4 -6 -165 -10 -453 -9 -506 1 -499 0 -514 73 -5 21 -7 1813 -6 3983
l3 3945 30 24 30 24 1805 -4 c993 -3 1846 -7 1895 -11z m5208 3 c17 -8 27 -21
27 -35 0 -12 5 -25 10 -28 7 -4 10 -1330 10 -3944 0 -3600 -1 -3941 -16 -3970
-9 -18 -24 -35 -33 -37 -9 -3 -24 -10 -33 -15 -24 -12 -225 -12 -233 1 -8 13
-72 13 -80 0 -9 -15 -569 -13 -598 2 -12 6 -29 14 -37 18 -13 6 -15 460 -15
3995 l0 3988 30 18 c27 16 70 18 486 18 344 1 462 -2 482 -11z"/>
<path d="M20330 20043 c-64 -5 -229 -21 -340 -34 -215 -24 -528 -125 -775
-251 -393 -199 -776 -542 -1020 -913 -85 -129 -225 -378 -254 -453 -10 -26
-35 -87 -56 -137 -46 -110 -130 -375 -150 -470 -8 -38 -24 -113 -35 -165 -23
-111 -44 -264 -61 -443 -13 -145 -7 -584 11 -737 51 -441 128 -742 289 -1125
76 -183 249 -468 410 -677 117 -151 384 -403 556 -524 117 -82 198 -131 321
-193 78 -39 145 -71 149 -71 5 0 54 -18 109 -39 117 -45 322 -104 416 -121 36
-6 97 -18 135 -26 55 -13 136 -16 385 -16 249 0 330 3 385 16 39 8 99 20 135
26 36 7 103 23 150 37 47 14 105 31 130 38 80 22 332 126 420 173 556 295
1023 825 1281 1454 72 177 82 205 132 383 47 167 80 318 98 445 6 41 15 102
20 135 5 33 14 157 20 275 12 216 2 533 -22 693 -5 34 -16 112 -23 172 -8 61
-19 121 -24 135 -5 14 -15 56 -21 94 -19 108 -97 365 -157 520 -58 148 -172
376 -256 511 -27 44 -55 89 -61 100 -15 25 -105 146 -152 205 -110 136 -328
348 -470 456 -240 183 -486 310 -792 409 -200 65 -351 92 -653 115 -124 9
-142 10 -230 3z"/>
<path d="M6987 19918 c-16 -12 -17 -89 -17 -1492 0 -1071 3 -1483 11 -1493 10
-11 214 -13 1172 -13 1237 0 1317 3 1528 51 202 45 415 152 598 299 55 43 177
182 226 256 272 410 328 1013 140 1520 -50 133 -92 208 -192 341 -144 192
-307 315 -548 415 -140 58 -190 72 -350 99 -129 23 -142 23 -1340 26 -980 3
-1213 1 -1228 -9z"/>
</g>
</svg>
